<?xml version="1.0" encoding="utf-8"?>
<!-- Generator: Adobe Illustrator 26.0.3, SVG Export Plug-In . SVG Version: 6.00 Build 0)  -->
<svg version="1.0" id="katman_1" xmlns="http://www.w3.org/2000/svg" xmlns:xlink="http://www.w3.org/1999/xlink" x="0px" y="0px"
	 viewBox="0 0 800 600" style="enable-background:new 0 0 800 600;" xml:space="preserve">
<style type="text/css">
	.st0{fill:#1D1D1B;}
	.st1{fill:url(#SVGID_1_);}
	.st2{clip-path:url(#SVGID_00000012443781213633799720000013574803059110492061_);}
	.st3{fill:none;stroke:#726792;stroke-width:2.160451e-02;stroke-miterlimit:10;}
	.st4{fill:url(#SVGID_00000092422253050160962280000003343869656268171403_);}
	.st5{clip-path:url(#SVGID_00000064327470976402789980000015126713356525055658_);}
	
		.st6{fill:none;stroke:url(#SVGID_00000171707558032202620790000016421890931472488359_);stroke-width:2.160451e-02;stroke-miterlimit:10;}
	.st7{fill:url(#SVGID_00000018952875500192583790000005893554909141461945_);}
	.st8{clip-path:url(#SVGID_00000018938987003899851200000005548823012578322361_);}
	.st9{fill:none;stroke:#B6A7D2;stroke-width:2.160451e-02;stroke-miterlimit:10;}
	.st10{fill:url(#SVGID_00000173840468663731533680000011196494736326238630_);}
	.st11{clip-path:url(#SVGID_00000003786749558445260640000002932507884742171264_);}
	.st12{fill:none;stroke:#8073A3;stroke-width:2.160451e-02;stroke-miterlimit:10;}
	.st13{fill:url(#SVGID_00000165929399430965334550000005359608509446033597_);}
	.st14{clip-path:url(#SVGID_00000109028739838057429690000005430406987247163580_);}
	.st15{fill:none;stroke:#9689BD;stroke-width:2.160451e-02;stroke-miterlimit:10;}
	.st16{fill:url(#SVGID_00000065065852662758131780000010437915985802672807_);}
	.st17{clip-path:url(#SVGID_00000151546071843821954450000018078657789725196161_);}
	.st18{fill:none;stroke:#B0A0CE;stroke-width:2.160451e-02;stroke-miterlimit:10;}
	.st19{fill:url(#SVGID_00000135687854405504342410000013388717968845353120_);}
	.st20{clip-path:url(#SVGID_00000036950166724115714160000015627515354191053999_);}
	.st21{fill:url(#SVGID_00000065792546695911355130000013331172184698450333_);}
	.st22{clip-path:url(#SVGID_00000183970586142599649410000013153495889269808025_);}
	
		.st23{fill:none;stroke:url(#SVGID_00000005260622596099573290000007868977263649629830_);stroke-width:2.160451e-02;stroke-miterlimit:10;}
	.st24{fill:url(#SVGID_00000121995579760394841840000000006899028375346821_);}
	.st25{clip-path:url(#SVGID_00000013908494268033880800000013018112620375314308_);}
	.st26{fill:url(#SVGID_00000100385193503084811240000002764384801232676483_);}
	.st27{clip-path:url(#SVGID_00000057131316629299581740000002069620750296980631_);}
	.st28{fill:url(#SVGID_00000068646148040721816630000007538549048784816301_);}
	.st29{fill:url(#SVGID_00000110471167025744056700000014825979544583228604_);}
</style>
<g transform="matrix(1.3333 0 0 -1.3333 -742.44 1428)">
	<g transform="translate(34.929 -3.3546)">
		<g>
			<g>
				<g transform="translate(787.08,980.69)">
					<path class="st0" d="M-62.8-142.2c-1.6,0.6-3.8,1.3-6.6,2c-2.1,0.5-3.8,0.9-5,1.4c-1.2,0.4-2.2,1-3,1.8c-0.8,0.8-1.2,1.8-1.2,3
						c0,1.7,0.7,3,2.2,4.1c1.4,1.1,3.6,1.6,6.5,1.6c1.6,0,3.3-0.3,5-0.7c1.6-0.5,3.2-1.2,4.7-2.1l0.2-0.1l1.7,4.2l-0.1,0.1
						c-1.5,1-3.2,1.8-5.2,2.3c-2.1,0.5-4.2,0.8-6.3,0.8c-3.1,0-5.6-0.5-7.7-1.4c-2.1-0.9-3.6-2.2-4.6-3.7c-1-1.5-1.5-3.3-1.5-5.2
						c0-2.3,0.6-4.2,1.8-5.5c1.2-1.4,2.6-2.4,4.3-3c1.7-0.7,3.9-1.3,6.6-2c2.2-0.5,3.8-1,5-1.4c1.2-0.4,2.2-1,3-1.8
						c0.8-0.8,1.2-1.8,1.2-3c0-1.7-0.7-3-2.2-4c-1.5-1-3.7-1.5-6.7-1.5c-2.3,0-4.5,0.4-6.6,1.2c-2,0.7-3.8,1.7-5.1,2.9l-0.2,0.2
						l-2-4.1l0.1-0.1c1.4-1.3,3.4-2.4,5.9-3.2c2.5-0.8,5.2-1.3,7.9-1.3c3.1,0,5.7,0.5,7.8,1.4c2.1,0.9,3.7,2.2,4.7,3.7
						c1,1.6,1.6,3.3,1.6,5.2c0,2.3-0.6,4.1-1.8,5.4C-59.7-143.9-61.1-142.9-62.8-142.2"/>
				</g>
				<g transform="translate(813.66,1011)">
					<path class="st0" d="M-77.7-159.3h12.4v-31.6h5.2v31.6h12.4v4.6h-30V-159.3z"/>
				</g>
				<g transform="translate(947.84,969.03)">
					<path class="st0" d="M-153.2-135.6h-15.4l7.7,17.5L-153.2-135.6z M-158.3-112.7h-5.2l-16.4-36.2h5.4l4,9h19.1l4-9h5.5
						l-16.4,36.1L-158.3-112.7z"/>
				</g>
				<g transform="translate(1065,1021.5)">
					<path class="st0" d="M-219.2-165.2h-6l-19.5-20.1v20.1h-5.3v-36.2h5.3v9.4l6.5,6.6l13.7-15.9l0.1-0.1h6.2l-16.4,19.9
						L-219.2-165.2z"/>
				</g>
				<g transform="translate(1100.2,975.62)">
					<path class="st0" d="M-239-139.4h18.1v4.5H-239v11h20.3v4.6h-25.6v-36.2h26.3v4.6h-21V-139.4z"/>
				</g>
				<g transform="translate(1257.5,954.33)">
					<path class="st0" d="M-327.5-127.4l-9.9,29.2l0,0.1h-4.8l-10.1-29.2l-9.7,29.1l0,0.1h-5.4l12.1-36.2h5.6l9.8,28.7l9.8-28.7h5.5
						l12,35.9l0.1,0.3h-5L-327.5-127.4z"/>
				</g>
				<path class="st0" d="M955,820.1h5.3v36.2H955V820.1z"/>
				<g transform="translate(1402.3,980.69)">
					<path class="st0" d="M-408.9-142.2c-1.6,0.6-3.8,1.3-6.6,2c-2.1,0.5-3.8,0.9-5,1.4c-1.2,0.4-2.2,1-3,1.8
						c-0.8,0.8-1.2,1.8-1.2,3c0,1.7,0.7,3,2.2,4.1c1.4,1.1,3.6,1.6,6.5,1.6c1.6,0,3.3-0.3,5-0.7c1.6-0.5,3.2-1.2,4.7-2.1l0.2-0.1
						l1.7,4.2l-0.1,0.1c-1.5,1-3.2,1.8-5.2,2.3c-2.1,0.5-4.2,0.8-6.3,0.8c-3.1,0-5.6-0.5-7.7-1.4c-2.1-0.9-3.6-2.2-4.6-3.7
						c-1-1.5-1.5-3.3-1.5-5.2c0-2.3,0.6-4.2,1.8-5.5c1.2-1.4,2.6-2.4,4.3-3c1.7-0.7,3.9-1.3,6.6-2c2.2-0.5,3.8-1,5-1.4
						c1.2-0.4,2.2-1,3-1.8c0.8-0.8,1.2-1.8,1.2-3c0-1.7-0.7-3-2.2-4c-1.5-1-3.7-1.5-6.7-1.5c-2.3,0-4.5,0.4-6.6,1.2
						c-2,0.7-3.8,1.7-5.1,2.9l-0.2,0.2l-2-4.1l0.1-0.1c1.4-1.3,3.4-2.4,5.9-3.2c2.5-0.8,5.2-1.3,7.9-1.3c3.1,0,5.7,0.5,7.8,1.4
						c2.1,0.9,3.7,2.2,4.7,3.7c1,1.6,1.6,3.3,1.6,5.2c0,2.3-0.6,4.1-1.8,5.4C-405.9-143.9-407.3-142.9-408.9-142.2"/>
				</g>
				<g transform="translate(1454,949.23)">
					<path class="st0" d="M-438-124.5v11.5h18.1v4.5H-438v11h20.3v4.6h-25.6v-36.2h26.3v4.6H-438z"/>
				</g>
			</g>
		</g>
	</g>
	<g transform="matrix(.74106 0 0 .74106 187.84 243.3)">
		
			<linearGradient id="SVGID_1_" gradientUnits="userSpaceOnUse" x1="525.4507" y1="529.4427" x2="530.2134" y2="529.4427" gradientTransform="matrix(8.9707 -4.5186 -4.5186 -8.9707 -1697.8127 7913.4443)">
			<stop  offset="0" style="stop-color:#8277A6"/>
			<stop  offset="1" style="stop-color:#655880"/>
		</linearGradient>
		<path class="st1" d="M614.6,773.3l42.3-21.6V794L614.6,773.3z"/>
		<g>
			<defs>
				<rect id="SVGID_00000005977099739669687350000001727896516864767383_" x="402" y="370.7" width="864.2" height="864.2"/>
			</defs>
			<clipPath id="SVGID_00000130614664502796754990000005183627404784559029_">
				<use xlink:href="#SVGID_00000005977099739669687350000001727896516864767383_"  style="overflow:visible;"/>
			</clipPath>
			<g style="clip-path:url(#SVGID_00000130614664502796754990000005183627404784559029_);">
				<g transform="translate(594.81,883.14)">
					<path class="st3" d="M62.1-131.5l-42.3,21.6l42.3,20.7V-131.5z"/>
				</g>
			</g>
		</g>
		
			<linearGradient id="SVGID_00000144332811334857042610000004748191242189505168_" gradientUnits="userSpaceOnUse" x1="482.9049" y1="537.1672" x2="487.6676" y2="537.1672" gradientTransform="matrix(6.5179 9.5595 9.5595 -6.5179 -7628.979 -367.3742)">
			<stop  offset="0" style="stop-color:#665A82"/>
			<stop  offset="0.2371" style="stop-color:#73638D"/>
			<stop  offset="1" style="stop-color:#B4A6D1"/>
		</linearGradient>
		<path style="fill:url(#SVGID_00000144332811334857042610000004748191242189505168_);" d="M656.9,751.7l42.3,21.5L656.9,794V751.7z
			"/>
		<g>
			<defs>
				<rect id="SVGID_00000013873378652798698400000010033485076676340415_" x="402" y="370.7" width="864.2" height="864.2"/>
			</defs>
			<clipPath id="SVGID_00000155106449094740096360000000693749487008657285_">
				<use xlink:href="#SVGID_00000013873378652798698400000010033485076676340415_"  style="overflow:visible;"/>
			</clipPath>
			<g style="clip-path:url(#SVGID_00000155106449094740096360000000693749487008657285_);">
				<g transform="translate(594.81,979.95)">
					
						<linearGradient id="SVGID_00000157304374062308736850000009363508599357311377_" gradientUnits="userSpaceOnUse" x1="-76.4542" y1="-529.5798" x2="-71.6915" y2="-529.5798" gradientTransform="matrix(8.7761 0 0 8.7761 733.0938 4440.5547)">
						<stop  offset="0" style="stop-color:#73638D"/>
						<stop  offset="0.6089" style="stop-color:#B4A6D1"/>
						<stop  offset="1" style="stop-color:#B4A6D1"/>
					</linearGradient>
					
						<path style="fill:none;stroke:url(#SVGID_00000157304374062308736850000009363508599357311377_);stroke-width:2.160451e-02;stroke-miterlimit:10;" d="
						M62.1-185.9l42.3-20.8l-42.3-21.5V-185.9z"/>
				</g>
			</g>
		</g>
		
			<linearGradient id="SVGID_00000175296289532939161840000015249550063297575562_" gradientUnits="userSpaceOnUse" x1="488.5787" y1="542.7164" x2="493.3415" y2="542.7164" gradientTransform="matrix(6.8526 7.5597 7.5597 -6.8526 -6773.7744 807.9759)">
			<stop  offset="0" style="stop-color:#B0A0CE"/>
			<stop  offset="1" style="stop-color:#CEC6E2"/>
		</linearGradient>
		<path style="fill:url(#SVGID_00000175296289532939161840000015249550063297575562_);" d="M656.9,794l42.3-20.8l-17.3,33L656.9,794
			z"/>
		<g>
			<defs>
				<rect id="SVGID_00000071547320890504120940000011091719294949529217_" x="402" y="370.7" width="864.2" height="864.2"/>
			</defs>
			<clipPath id="SVGID_00000132062775263034504690000004161971410589922698_">
				<use xlink:href="#SVGID_00000071547320890504120940000011091719294949529217_"  style="overflow:visible;"/>
			</clipPath>
			<g style="clip-path:url(#SVGID_00000132062775263034504690000004161971410589922698_);">
				<g transform="translate(651.97,1007.9)">
					<path class="st9" d="M30-201.7l17.3-33L5-213.9L30-201.7z"/>
				</g>
			</g>
		</g>
		
			<linearGradient id="SVGID_00000002346413693870772210000016496623907165575298_" gradientUnits="userSpaceOnUse" x1="418.9124" y1="588.5046" x2="423.6751" y2="588.5046" gradientTransform="matrix(0.9665 2.8993 2.8993 -0.9665 -1474.7391 139.7408)">
			<stop  offset="0" style="stop-color:#887CAE"/>
			<stop  offset="1" style="stop-color:#7A6E9B"/>
		</linearGradient>
		<path style="fill:url(#SVGID_00000002346413693870772210000016496623907165575298_);" d="M614.6,773.3l42.3,20.7l-25,12.3
			L614.6,773.3z"/>
		<g>
			<defs>
				<rect id="SVGID_00000137109903988351404010000003781252409921065656_" x="402" y="370.7" width="864.2" height="864.2"/>
			</defs>
			<clipPath id="SVGID_00000111170762140462071060000017082389272675181705_">
				<use xlink:href="#SVGID_00000137109903988351404010000003781252409921065656_"  style="overflow:visible;"/>
			</clipPath>
			<g style="clip-path:url(#SVGID_00000111170762140462071060000017082389272675181705_);">
				<g transform="translate(537.7,1008)">
					<path class="st12" d="M94.3-201.7l25-12.3l-42.3-20.7L94.3-201.7z"/>
				</g>
			</g>
		</g>
		
			<linearGradient id="SVGID_00000163790430510161125670000006457533186381304756_" gradientUnits="userSpaceOnUse" x1="460.5485" y1="447.4211" x2="465.3112" y2="447.4211" gradientTransform="matrix(-4.5518 0 0 4.5518 2758.9741 -1212.6121)">
			<stop  offset="0" style="stop-color:#B0A0CE"/>
			<stop  offset="1" style="stop-color:#887CAE"/>
		</linearGradient>
		<path style="fill:url(#SVGID_00000163790430510161125670000006457533186381304756_);" d="M632,806.3l25-12.3v59.9L632,806.3z"/>
		<g>
			<defs>
				<rect id="SVGID_00000008828953092643978840000008368128012005498782_" x="402" y="370.7" width="864.2" height="864.2"/>
			</defs>
			<clipPath id="SVGID_00000137113507542250155320000004170444668209113479_">
				<use xlink:href="#SVGID_00000008828953092643978840000008368128012005498782_"  style="overflow:visible;"/>
			</clipPath>
			<g style="clip-path:url(#SVGID_00000137113507542250155320000004170444668209113479_);">
				<g transform="translate(594.81,979.95)">
					<path class="st15" d="M62.1-185.9v59.9l-25-47.6L62.1-185.9z"/>
				</g>
			</g>
		</g>
		
			<linearGradient id="SVGID_00000098942499248198633020000013528998017055776148_" gradientUnits="userSpaceOnUse" x1="572.0515" y1="527.8904" x2="576.8142" y2="527.8904" gradientTransform="matrix(3.2112 -3.0479 -3.0479 -3.2112 436.3983 4255.5249)">
			<stop  offset="0" style="stop-color:#B0A0CE"/>
			<stop  offset="1" style="stop-color:#CEC6E2"/>
		</linearGradient>
		<path style="fill:url(#SVGID_00000098942499248198633020000013528998017055776148_);" d="M656.9,794l25,12.2l-25,47.7V794z"/>
		<g>
			<defs>
				<rect id="SVGID_00000021116209956174148260000010938770825889843115_" x="402" y="370.7" width="864.2" height="864.2"/>
			</defs>
			<clipPath id="SVGID_00000157274514424235804590000007188226477860169640_">
				<use xlink:href="#SVGID_00000021116209956174148260000010938770825889843115_"  style="overflow:visible;"/>
			</clipPath>
			<g style="clip-path:url(#SVGID_00000157274514424235804590000007188226477860169640_);">
				<g transform="translate(594.81,979.95)">
					<path class="st18" d="M62.1-185.9v59.9l25-47.7L62.1-185.9z"/>
				</g>
			</g>
		</g>
		
			<linearGradient id="SVGID_00000098209969087936037830000008463572735307177103_" gradientUnits="userSpaceOnUse" x1="525.4507" y1="529.4427" x2="530.2134" y2="529.4427" gradientTransform="matrix(8.9707 -4.5186 -4.5186 -8.9707 -1697.8127 7913.4443)">
			<stop  offset="0" style="stop-color:#8277A6"/>
			<stop  offset="1" style="stop-color:#655880"/>
		</linearGradient>
		<path style="fill:url(#SVGID_00000098209969087936037830000008463572735307177103_);" d="M614.6,773.3l42.3-21.6V794L614.6,773.3z
			"/>
		<g>
			<defs>
				<rect id="SVGID_00000176039392777254453200000008172928400553373628_" x="402" y="370.7" width="864.2" height="864.2"/>
			</defs>
			<clipPath id="SVGID_00000056429976524364135280000006498500785867749272_">
				<use xlink:href="#SVGID_00000176039392777254453200000008172928400553373628_"  style="overflow:visible;"/>
			</clipPath>
			<g style="clip-path:url(#SVGID_00000056429976524364135280000006498500785867749272_);">
				<g transform="translate(594.81,883.14)">
					<path class="st3" d="M62.1-131.5l-42.3,21.6l42.3,20.7V-131.5z"/>
				</g>
			</g>
		</g>
		
			<linearGradient id="SVGID_00000129926825975780683150000004269830654553552808_" gradientUnits="userSpaceOnUse" x1="482.9049" y1="537.1672" x2="487.6676" y2="537.1672" gradientTransform="matrix(6.5179 9.5595 9.5595 -6.5179 -7628.979 -367.3742)">
			<stop  offset="0" style="stop-color:#665A82"/>
			<stop  offset="0.2371" style="stop-color:#73638D"/>
			<stop  offset="1" style="stop-color:#B4A6D1"/>
		</linearGradient>
		<path style="fill:url(#SVGID_00000129926825975780683150000004269830654553552808_);" d="M656.9,751.7l42.3,21.5L656.9,794V751.7z
			"/>
		<g>
			<defs>
				<rect id="SVGID_00000034091321811561104940000011757676353718081929_" x="402" y="370.7" width="864.2" height="864.2"/>
			</defs>
			<clipPath id="SVGID_00000162338049438527524810000015716889556524840868_">
				<use xlink:href="#SVGID_00000034091321811561104940000011757676353718081929_"  style="overflow:visible;"/>
			</clipPath>
			<g style="clip-path:url(#SVGID_00000162338049438527524810000015716889556524840868_);">
				<g transform="translate(594.81,979.95)">
					
						<linearGradient id="SVGID_00000010995805059720867830000004971478076652796808_" gradientUnits="userSpaceOnUse" x1="-76.4542" y1="-529.5798" x2="-71.6915" y2="-529.5798" gradientTransform="matrix(8.7761 0 0 8.7761 733.0938 4440.5547)">
						<stop  offset="0" style="stop-color:#73638D"/>
						<stop  offset="0.6089" style="stop-color:#B4A6D1"/>
						<stop  offset="1" style="stop-color:#B4A6D1"/>
					</linearGradient>
					
						<path style="fill:none;stroke:url(#SVGID_00000010995805059720867830000004971478076652796808_);stroke-width:2.160451e-02;stroke-miterlimit:10;" d="
						M62.1-185.9l42.3-20.8l-42.3-21.5V-185.9z"/>
				</g>
			</g>
		</g>
		
			<linearGradient id="SVGID_00000106148175062281223690000000228904134578604455_" gradientUnits="userSpaceOnUse" x1="488.5787" y1="542.7164" x2="493.3415" y2="542.7164" gradientTransform="matrix(6.8526 7.5597 7.5597 -6.8526 -6773.7744 807.9759)">
			<stop  offset="0" style="stop-color:#B0A0CE"/>
			<stop  offset="1" style="stop-color:#CEC6E2"/>
		</linearGradient>
		<path style="fill:url(#SVGID_00000106148175062281223690000000228904134578604455_);" d="M656.9,794l42.3-20.8l-17.3,33L656.9,794
			z"/>
		<g>
			<defs>
				<rect id="SVGID_00000069396932535826148080000013590869937124418480_" x="402" y="370.7" width="864.2" height="864.2"/>
			</defs>
			<clipPath id="SVGID_00000054963267790276747060000015346286450280632992_">
				<use xlink:href="#SVGID_00000069396932535826148080000013590869937124418480_"  style="overflow:visible;"/>
			</clipPath>
			<g style="clip-path:url(#SVGID_00000054963267790276747060000015346286450280632992_);">
				<g transform="translate(651.97,1007.9)">
					<path class="st9" d="M30-201.7l17.3-33L5-213.9L30-201.7z"/>
				</g>
			</g>
		</g>
		
			<linearGradient id="SVGID_00000045616905157451429980000017667334436626629779_" gradientUnits="userSpaceOnUse" x1="418.9124" y1="588.5046" x2="423.6751" y2="588.5046" gradientTransform="matrix(0.9665 2.8993 2.8993 -0.9665 -1474.7391 139.7408)">
			<stop  offset="0" style="stop-color:#887CAE"/>
			<stop  offset="1" style="stop-color:#7A6E9B"/>
		</linearGradient>
		<path style="fill:url(#SVGID_00000045616905157451429980000017667334436626629779_);" d="M614.6,773.3l42.3,20.7l-25,12.3
			L614.6,773.3z"/>
		<g>
			<defs>
				<rect id="SVGID_00000011735651475748466090000002795076352139607438_" x="402" y="370.7" width="864.2" height="864.2"/>
			</defs>
			<clipPath id="SVGID_00000000223897416065479470000000696824180416343722_">
				<use xlink:href="#SVGID_00000011735651475748466090000002795076352139607438_"  style="overflow:visible;"/>
			</clipPath>
			<g style="clip-path:url(#SVGID_00000000223897416065479470000000696824180416343722_);">
				<g transform="translate(537.7,1008)">
					<path class="st12" d="M94.3-201.7l25-12.3l-42.3-20.7L94.3-201.7z"/>
				</g>
			</g>
		</g>
		
			<linearGradient id="SVGID_00000006668402792186169710000015573801614772600462_" gradientUnits="userSpaceOnUse" x1="460.5485" y1="447.4211" x2="465.3112" y2="447.4211" gradientTransform="matrix(-4.5518 0 0 4.5518 2758.9741 -1212.6121)">
			<stop  offset="0" style="stop-color:#B0A0CE"/>
			<stop  offset="1" style="stop-color:#887CAE"/>
		</linearGradient>
		<path style="fill:url(#SVGID_00000006668402792186169710000015573801614772600462_);" d="M632,806.3l25-12.3v59.9L632,806.3z"/>
		<g>
			<g>
				<g transform="translate(594.81,979.95)">
					<path class="st15" d="M62.1-185.9v59.9l-25-47.6L62.1-185.9z"/>
				</g>
			</g>
		</g>
		
			<linearGradient id="SVGID_00000127746684630466895810000006761957929496804529_" gradientUnits="userSpaceOnUse" x1="572.0515" y1="527.8904" x2="576.8142" y2="527.8904" gradientTransform="matrix(3.2112 -3.0479 -3.0479 -3.2112 436.3983 4255.5249)">
			<stop  offset="0" style="stop-color:#B0A0CE"/>
			<stop  offset="1" style="stop-color:#CEC6E2"/>
		</linearGradient>
		<path style="fill:url(#SVGID_00000127746684630466895810000006761957929496804529_);" d="M656.9,794l25,12.2l-25,47.7V794z"/>
		<g>
			<g>
				<g transform="translate(594.81,979.95)">
					<path class="st18" d="M62.1-185.9v59.9l25-47.7L62.1-185.9z"/>
				</g>
			</g>
		</g>
	</g>
</g>
</svg>
