<svg
   width="1em"
   height="1em"
   viewBox="0 0 215 215"
   xmlns="http://www.w3.org/2000/svg">
  <g
     transform="matrix(0.1,0,0,-0.1,-51.570557,264.63284)"
     fill="#000000"
     stroke="none"
     id="g2">
    <path
       d="m 1395,2550 c -275,-73 -486,-281 -561,-555 -26,-96 -27,-301 -1,-400 30,-110 101,-239 180,-321 37,-40 64,-75 59,-78 -5,-3 -26,0 -48,6 -101,27 -254,-21 -329,-103 -63,-70 -90,-141 -90,-234 0,-62 5,-89 22,-120 31,-58 89,-114 147,-141 l 51,-24 h 765 c 748,0 766,1 810,21 182,82 203,330 35,416 -16,8 -49,37 -72,63 -58,65 -112,90 -194,90 -85,0 -159,-35 -202,-96 l -30,-42 -33,16 c -19,8 -34,18 -33,21 0,3 37,24 82,45 65,31 99,57 162,120 123,123 193,258 225,430 17,94 8,251 -20,346 -79,265 -296,473 -564,540 -104,26 -263,26 -361,0 z m 333,-26 c 98,-19 239,-88 319,-154 69,-57 158,-168 197,-247 106,-214 95,-497 -29,-709 -43,-74 -141,-181 -206,-225 -71,-48 -145,-83 -159,-74 -26,16 -7,42 58,74 132,68 267,229 323,387 30,84 38,293 14,384 -24,92 -87,207 -152,280 -141,156 -309,230 -519,230 -192,0 -336,-61 -476,-200 -72,-73 -93,-102 -131,-181 -58,-119 -71,-187 -65,-331 8,-179 63,-309 180,-428 56,-57 57,-58 38,-75 -19,-17 -21,-17 -42,1 -134,113 -238,349 -238,538 0,200 79,385 225,531 177,178 416,249 663,199 z m 4,-103 c 144,-37 282,-125 362,-232 96,-128 136,-239 136,-385 0,-118 -16,-188 -66,-293 -59,-121 -172,-240 -276,-289 -37,-18 -71,-32 -75,-32 -5,0 -31,23 -58,51 -28,28 -76,65 -107,83 l -58,32 150,182 c 83,99 150,186 150,191 0,21 -29,11 -199,-73 l -111,-55 -144,70 c -80,38 -150,69 -155,69 -26,0 -3,-35 129,-193 76,-92 141,-171 144,-175 3,-5 -20,-4 -51,2 -79,14 -188,-4 -270,-44 l -65,-32 -57,56 c -66,66 -113,139 -149,234 -23,60 -26,81 -26,207 0,127 2,146 25,207 53,135 149,258 264,334 144,96 338,128 507,85 z m -270,-797 113,-56 118,55 118,56 -68,-82 c -37,-45 -73,-86 -78,-92 -6,-5 -27,-31 -46,-57 -19,-26 -37,-48 -40,-48 -3,0 -26,26 -51,58 -26,31 -78,94 -118,140 -39,45 -69,82 -66,82 3,0 56,-25 118,-56 z m 118,-303 c 107,-41 223,-160 236,-243 4,-24 12,-38 21,-38 32,0 92,-44 118,-86 20,-32 31,-42 39,-34 8,8 5,22 -11,50 l -21,40 22,32 c 37,56 98,91 165,96 32,2 75,-1 94,-7 43,-15 117,-84 117,-110 0,-12 9,-20 28,-24 45,-10 88,-43 107,-83 24,-48 24,-137 2,-180 -24,-47 -92,-100 -142,-113 -30,-8 -273,-11 -768,-11 -820,0 -793,-2 -870,75 -62,61 -77,99 -77,187 0,56 6,85 24,124 51,109 160,178 281,179 39,0 78,-3 87,-7 16,-6 16,-10 3,-42 -18,-43 -19,-56 -2,-56 6,1 23,24 36,51 30,64 113,149 177,179 108,53 231,60 334,21 z"
       id="path1" />
    <path
       d="m 1560,2335 c -7,-8 -82,-131 -166,-272 -121,-203 -151,-260 -141,-269 6,-7 68,-38 137,-70 69,-31 134,-63 145,-71 11,-7 27,-13 36,-13 19,0 319,137 336,154 10,9 -22,70 -150,284 -89,149 -167,272 -173,272 -6,0 -17,-7 -24,-15 z m 61,-88 c 20,-34 79,-136 132,-226 54,-90 97,-165 97,-166 0,-2 -61,25 -135,60 l -134,64 -136,-64 c -75,-36 -135,-60 -133,-55 7,19 263,450 268,450 3,-1 21,-29 41,-63 z m 64,-350 c 50,-24 111,-52 137,-63 47,-19 67,-41 28,-31 -11,3 -20,2 -20,-2 0,-3 -34,-22 -76,-41 -43,-19 -100,-47 -128,-61 l -51,-26 -95,45 c -52,24 -117,55 -145,67 l -50,23 110,51 c 61,28 121,57 135,65 39,22 59,19 155,-27 z"
       id="path2" />
  </g>
  <path
     style="fill:#f9f9f9;stroke-width:0.247295"
     d="m 45.492815,203.17064 c -11.978662,-0.41299 -16.79466,-1.12144 -20.290837,-2.98489 -3.107327,-1.65618 -8.831653,-7.83797 -10.587796,-11.43391 -1.602169,-3.28067 -1.891288,-5.06669 -1.867725,-11.53786 0.01785,-4.9016 0.08409,-5.79701 0.556318,-7.51986 1.27269,-4.6432 3.663865,-8.82458 7.161211,-12.52261 4.466522,-4.72283 9.158964,-7.46908 15.434612,-9.03312 4.403955,-1.09757 13.894575,-1.08271 16.036855,0.0251 0.9788,0.50615 0.94316,1.02531 -0.28267,4.11805 -0.69971,1.76535 -1.02374,2.97154 -1.05101,3.91234 l -0.0394,1.36012 h 0.85516 c 0.73643,0 0.98519,-0.17166 1.79182,-1.23648 0.51517,-0.68005 1.51977,-2.34409 2.23245,-3.69784 1.82939,-3.47497 3.848,-6.21531 6.98801,-9.48648 5.76258,-6.00327 10.27987,-8.8475 17.50883,-11.02409 4.76755,-1.43548 7.10462,-1.75849 12.66391,-1.7503 5.53865,0.008 7.548027,0.29893 11.995747,1.73586 7.68872,2.48399 15.84971,8.69198 21.179,16.11068 2.1091,2.93598 3.39707,5.63143 4.13031,8.64386 0.79683,3.2737 1.06294,3.66068 2.7503,3.99956 3.52833,0.70858 8.30215,4.34046 11.06757,8.42007 2.38062,3.51196 3.71968,4.50807 4.38615,3.26278 0.53244,-0.99488 0.24714,-2.02043 -1.51733,-5.45428 l -1.77333,-3.45108 1.46421,-2.15269 c 2.74714,-4.03888 5.39386,-6.44375 9.17462,-8.33627 3.02494,-1.51419 4.89796,-1.9308 9.31459,-2.07181 6.37851,-0.20364 8.54158,0.375 12.52321,3.35008 3.63305,2.71463 6.45195,5.96526 6.89922,7.95589 0.31836,1.41694 1.08015,2.14478 2.72366,2.60228 5.75883,1.60308 9.7061,5.00892 11.46329,9.89093 1.5382,4.27357 1.57988,10.99882 0.0938,15.13508 -1.65521,4.60703 -9.09681,10.95001 -14.4579,12.32346 -3.08961,0.79152 -11.9063,0.91043 -72.62268,0.97946 -33.051007,0.0376 -62.707877,-0.0218 -65.904167,-0.13204 z"
     id="path3" />
  <path
     style="fill:#ffdd55;stroke-width:0.247295"
     d="m 128.70217,144.77205 c -0.54104,-0.43348 -2.26346,-2.02475 -3.8276,-3.53614 -4.82909,-4.66624 -9.03536,-7.79384 -14.30568,-10.63708 -1.5702,-0.84708 -2.70525,-1.60852 -2.6452,-1.7745 0.0578,-0.1599 4.31504,-5.3902 9.46043,-11.62287 16.49078,-19.975487 20.17673,-24.712517 20.05371,-25.772247 -0.0685,-0.59084 -0.16815,-0.64374 -1.18768,-0.63094 -1.90832,0.0239 -5.80131,1.74191 -22.67345,10.005767 l -7.2175,3.53508 -7.001967,-3.41105 c -10.33349,-5.034017 -20.70555,-9.791327 -22.59455,-10.363327 -0.28357,-0.0859 -0.72008,10e-4 -0.98911,0.19843 -0.42699,0.31222 -0.44734,0.44276 -0.17961,1.15206 0.9016,2.38863 3.27291,5.46558 17.71025,22.980357 l 10.294117,12.48841 -1.12607,0.0761 c -0.61933,0.0419 -2.21641,-0.0973 -3.549037,-0.30912 -3.13134,-0.49783 -9.18281,-0.49922 -12.59496,-0.003 -6.01827,0.8754 -10.50779,2.32528 -16.8338,5.43642 l -4.20449,2.06777 -2.64421,-2.5213 c -6.91307,-6.59174 -11.20778,-12.22823 -14.832852,-19.46699 -2.97117,-5.93302 -4.814355,-11.33563 -5.281448,-15.480597 -0.36963,-3.28007 -0.364575,-21.52104 0.0068,-24.57436 0.825173,-6.78419 5.459798,-16.84001 11.54725,-25.05423 10.74536,-14.499488 24.575,-23.100683 41.61207,-25.880198 10.940427,-1.78488 21.541557,-0.832935 31.881657,2.862863 6.50562,2.325262 15.03558,7.049527 20.15551,11.162985 10.16076,8.163397 18.71058,21.30766 21.80725,33.5259 2.49002,9.82465 2.31883,23.42236 -0.41435,32.911627 -1.69005,5.86762 -4.90641,12.839 -8.33896,18.07447 -6.33602,9.66395 -14.64454,17.46614 -23.28176,21.86297 -2.17357,1.10646 -7.48504,3.48479 -7.78251,3.48479 -0.0212,0 -0.48122,-0.35467 -1.02225,-0.78815 z M 108.63383,99.713703 c 8.14818,-3.20267 28.55585,-12.75458 30.34437,-14.20283 0.77826,-0.6302 0.56062,-1.55088 -1.21906,-5.15697 -4.2394,-8.5901 -25.93849,-44.636342 -30.00735,-49.8478 -0.85218,-1.09149 -1.24331,-1.140405 -2.46746,-0.30858 -1.05818,0.719055 -3.61193,4.75137 -14.095197,22.25603 -14.25095,23.79582 -17.90975,30.45654 -17.70459,32.23062 0.12753,1.10289 2.60129,2.40534 20.02694,10.5443 2.54011,1.1864 5.71167,2.76246 7.047907,3.50237 2.47241,1.369007 4.04783,2.035897 4.8596,2.057107 0.24842,0.007 1.6951,-0.47691 3.21484,-1.074247 z"
     id="path4" />
  <path
     style="fill:#ffdd55;stroke-width:0.247295"
     d="m 133.19231,152.71381 c -1.87874,-1.47782 0.0823,-3.67563 6.14903,-6.8914 11.65981,-6.18048 23.16123,-18.81535 29.80555,-32.74285 3.75804,-7.87739 4.87917,-13.785787 5.1124,-26.942607 0.21968,-12.39185 -0.36166,-16.40974 -3.51399,-24.28618 -2.40132,-6 -5.83318,-12.11712 -9.78106,-17.434315 -2.67912,-3.608347 -8.51091,-9.57192 -12.27688,-12.554295 -10.05244,-7.960792 -20.97201,-12.396475 -34.32284,-13.942408 -4.02288,-0.465822 -14.08956,-0.390341 -18.052547,0.13536 -15.30692,2.030503 -26.97944,8.141945 -39.09934,20.471428 -5.98102,6.084457 -8.38854,9.4053 -11.710218,16.15267 -4.056067,8.23913 -5.669955,13.07923 -6.72036,20.15456 -0.470265,3.16759 -0.38853,14.80062 0.13635,19.40622 1.781243,15.629687 6.87714,26.370427 17.951178,37.836097 3.54901,3.67452 4.45012,4.7889 4.45012,5.5034 0,0.4867 -1.45536,2.00266 -2.38925,2.48873 -0.66651,0.34691 -1.11955,0.10115 -3.30307,-1.79178 -11.323498,-9.81653 -20.93669,-29.80785 -22.767058,-47.345717 -0.36438,-3.4914 -0.160657,-12.23201 0.367358,-15.76087 2.996483,-20.02628 13.66695,-37.743935 30.27692,-50.27297 4.76188,-3.591915 12.31753,-7.712456 17.93505,-9.78103 14.77164,-5.439446 32.561027,-5.714617 46.925827,-0.72586 7.89344,2.741318 17.66223,7.909685 23.39885,12.379617 7.69647,5.99703 16.59423,17.034008 21.10455,26.178533 8.15423,16.53245 9.29858,37.6597 3.05717,56.442327 -3.80016,11.43602 -9.0246,19.62603 -18.65582,29.24546 -1.9746,1.97218 -4.51612,4.30912 -5.64782,5.1932 -4.23924,3.31167 -12.15804,7.78677 -15.70743,8.87666 -2.06458,0.63395 -1.92744,0.63355 -2.72267,0.008 z"
     id="path5" />
  <path
     style="fill:#00ffff;stroke-width:0.247295"
     d="m 128.3367,76.837973 c -2.38021,-1.06898 -8.21278,-3.7934 -12.96126,-6.05428 -4.74848,-2.26086 -8.72254,-4.11066 -8.83126,-4.11066 -0.10871,0 -4.01339,1.79241 -8.677057,3.98314 -10.42981,4.89934 -17.21471,7.88702 -17.9111,7.88702 -0.0546,0 0.12834,-0.44608 0.4065,-0.9913 1.58374,-3.10439 21.319077,-36.336803 24.635367,-41.483595 l 1.47517,-2.289435 1.25906,1.918485 c 0.69248,1.055175 4.48124,7.426995 8.41947,14.159605 3.93822,6.73261 8.99392,15.35703 11.23488,19.16538 5.25755,8.9348 5.72592,9.76905 5.48152,9.7637 -0.11199,-0.002 -2.15107,-0.87908 -4.53129,-1.94806 z"
     id="path6" />
  <path
     style="fill:#00ffff;stroke-width:0.247295"
     d="m 103.60718,96.072493 c -3.884177,-1.85568 -20.372677,-9.5345 -23.316537,-10.8587 -1.60308,-0.72109 -2.8272,-1.38414 -2.72025,-1.47344 0.10695,-0.0893 3.42165,-1.64645 7.366,-3.46031 3.94436,-1.81387 9.78671,-4.58812 12.983,-6.165 l 5.811437,-2.86705 h 1.97836 c 2.87872,0 3.25565,0.14209 15.5796,5.87314 3.94436,1.83426 8.35388,3.85857 9.79893,4.49844 2.58588,1.14505 4.46373,2.39295 4.12341,2.74017 -0.0954,0.0973 -0.90132,0.0323 -1.7909,-0.14451 -1.53674,-0.30545 -1.64527,-0.29551 -2.17582,0.19926 -0.90111,0.84033 -3.43868,2.18819 -8.79892,4.67364 -2.76413,1.28168 -7.57619,3.60649 -10.69346,5.16627 -3.11727,1.55976 -5.75217,2.83287 -5.85531,2.82913 -0.10314,-0.004 -1.13343,-0.45871 -2.28954,-1.01104 z"
     id="path7" />
  <path
     style="fill:#00ffff;stroke-width:0.247295"
     d="m 104.93567,122.99451 c -0.66892,-0.71407 -1.93392,-2.18856 -2.81111,-3.27666 -2.10355,-2.60932 -7.041287,-8.49892 -12.128707,-14.46677 -4.89445,-5.741507 -6.69546,-7.967287 -6.55801,-8.104737 0.1392,-0.1392 6.74695,3.005247 15.32213,7.291407 l 7.146617,3.57211 4.10532,-1.91059 c 2.25792,-1.05081 7.3756,-3.45535 11.37261,-5.34341 3.99702,-1.888057 7.2915,-3.401727 7.32106,-3.363697 0.0729,0.0937 -9.19041,11.190687 -12.78139,15.311467 -1.59041,1.82504 -4.02477,4.81755 -5.40969,6.65001 -2.49993,3.30776 -3.88709,4.93917 -4.19971,4.93917 -0.0896,0 -0.71021,-0.58423 -1.37912,-1.2983 z"
     id="path8" />
</svg>