<svg width="713" height="713" viewBox="0 0 713 713" fill="none" xmlns="http://www.w3.org/2000/svg">
<path d="M366.487 237.718L319.466 284.739C317.315 286.89 316.085 289.81 316.085 292.883V334.218C316.085 338.444 312.628 341.902 308.402 341.902H216.204C211.978 341.902 208.521 338.444 208.521 334.218V242.02C208.521 237.794 211.978 234.337 216.204 234.337H311.322C314.395 234.337 317.315 233.108 319.466 230.956L359.342 191.081C363.183 187.239 360.494 180.555 354.962 180.555H213.284C210.211 180.555 207.291 181.784 205.14 183.935L158.119 230.956C155.968 233.108 154.738 236.027 154.738 239.101V337.138C154.738 340.211 155.968 343.131 158.119 345.282L205.14 392.303C207.291 394.455 210.211 395.684 213.284 395.684H311.322C314.395 395.684 317.315 394.455 319.466 392.303L366.487 345.282C368.638 343.131 369.868 340.211 369.868 337.138V295.803C369.868 291.577 373.325 288.119 377.551 288.119H468.136C471.593 288.119 473.283 292.268 470.825 294.65L434.099 331.376C430.257 335.217 432.947 341.902 438.478 341.902H499.56C502.633 341.902 505.553 340.672 507.704 338.521L554.725 291.5C556.876 289.349 558.106 286.429 558.106 283.356V242.02C558.106 237.794 554.648 234.337 550.423 234.337H374.631C371.558 234.337 368.638 235.566 366.487 237.718Z" fill="white"/>
<path d="M309.555 472.67C305.253 469.827 299.951 468.444 293.498 468.444C288.58 468.444 284.201 469.29 280.513 471.057C276.748 472.824 273.675 475.129 271.293 478.048C268.835 480.968 266.991 484.272 265.838 487.883C264.686 491.494 263.994 495.335 263.994 499.254V501.328C263.994 505.17 264.609 508.935 265.838 512.546C267.067 516.157 268.911 519.461 271.293 522.38C273.752 525.3 276.902 527.605 280.743 529.449C284.585 531.216 289.118 532.138 294.266 532.138C299.029 532.138 303.332 531.293 307.097 529.679C310.862 528.066 314.012 525.761 316.47 522.688C318.929 519.691 320.619 516.08 321.388 512.085H309.325C308.71 514.544 307.097 516.618 304.485 518.462C301.795 520.306 298.415 521.151 294.266 521.151C290.117 521.151 286.736 520.229 284.047 518.462C281.358 516.618 279.437 514.159 278.208 511.009C277.286 508.627 276.671 506.015 276.441 503.172H322.54V497.948C322.54 492.8 321.464 487.96 319.313 483.503C317.008 479.124 313.858 475.436 309.555 472.67ZM283.817 482.044C286.429 480.276 289.579 479.354 293.421 479.354C297.109 479.354 300.182 480.123 302.641 481.736C305.099 483.35 306.943 485.578 308.172 488.497C308.941 490.265 309.479 492.262 309.786 494.414H276.671C276.979 492.57 277.44 490.879 278.054 489.343C279.361 486.269 281.281 483.888 283.817 482.044Z" fill="white"/>
<path d="M417.581 455.459H405.288V472.285H395.453V482.657H405.288V508.78C405.288 514.312 406.133 518.692 407.9 521.995C409.667 525.222 412.202 527.527 415.583 528.833C418.964 530.14 423.189 530.831 428.107 530.831H437.096V519.537H427.108C424.111 519.537 421.73 518.692 420.039 517.078C418.349 515.388 417.581 513.006 417.581 509.933V482.657H437.096V472.285H417.581V455.459Z" fill="white"/>
<path d="M558.568 472.286H544.815L519.537 500.022V449.467H506.553V530.14H519.537V502.327H526.683L547.965 530.14H562.794L536.364 496.104L558.568 472.286Z" fill="white"/>
<path d="M618.958 498.025C618.958 492.877 617.882 488.036 615.731 483.58C613.579 479.124 610.352 475.513 606.127 472.67C601.824 469.827 596.523 468.444 590.069 468.444C585.152 468.444 580.772 469.29 577.084 471.057C573.32 472.824 570.246 475.129 567.864 478.048C565.406 480.968 563.562 484.272 562.409 487.883C561.257 491.494 560.565 495.335 560.565 499.254V501.328C560.565 505.17 561.18 508.935 562.409 512.546C563.639 516.157 565.483 519.461 567.864 522.38C570.323 525.3 573.473 527.605 577.315 529.449C581.156 531.216 585.689 532.138 590.837 532.138C595.601 532.138 599.903 531.293 603.668 529.679C607.433 528.066 610.583 525.761 613.042 522.688C615.5 519.691 617.191 516.08 617.959 512.085H605.896C605.282 514.544 603.668 516.618 601.056 518.462C598.367 520.306 594.986 521.151 590.837 521.151C586.688 521.151 583.308 520.229 580.619 518.462C577.929 516.618 576.009 514.159 574.779 511.009C573.857 508.627 573.243 506.015 573.012 503.172H619.111V498.025H618.958ZM580.465 482.044C583.077 480.276 586.227 479.354 590.069 479.354C593.757 479.354 596.83 480.123 599.289 481.736C601.747 483.35 603.591 485.578 604.821 488.497C605.589 490.265 606.127 492.262 606.434 494.414H573.32C573.627 492.57 574.088 490.879 574.702 489.343C575.932 486.269 577.853 483.888 580.465 482.044Z" fill="white"/>
<path d="M379.549 487.114C375.4 485.193 370.483 483.964 364.797 483.503L356.806 482.811C352.504 482.427 349.354 481.198 347.279 479.124C345.205 477.049 344.206 474.59 344.206 471.901C344.206 469.596 344.821 467.445 345.973 465.447C347.126 463.45 348.893 461.836 351.198 460.607C353.503 459.378 356.422 458.686 360.033 458.686C363.721 458.686 366.718 459.378 369.1 460.684C371.481 461.99 373.248 463.757 374.324 465.832C375.477 467.906 376.014 469.904 376.014 472.286H389.076C389.076 467.061 387.847 462.758 385.465 458.994C383.083 455.229 379.702 452.232 375.323 450.158C370.944 448.083 365.796 447.008 359.957 447.008C354.194 447.008 349.123 448.083 344.744 450.158C340.364 452.232 336.984 455.152 334.602 458.84C332.22 462.528 330.991 466.907 330.991 471.901C330.991 478.509 333.219 483.81 337.675 487.806C342.132 491.801 348.048 494.106 355.5 494.72L363.568 495.489C368.869 495.95 372.864 497.102 375.553 499.1C378.243 501.021 379.549 503.556 379.549 506.706C379.549 509.242 378.857 511.47 377.474 513.544C376.091 515.619 374.017 517.309 371.174 518.538C368.331 519.768 364.72 520.459 360.341 520.459C355.577 520.459 351.736 519.768 348.893 518.308C346.05 516.848 344.052 515.004 342.823 512.853C341.594 510.625 340.902 505.631 340.902 503.326H327.841C327.841 508.32 329.07 515.542 331.606 519.537C334.141 523.456 337.752 526.606 342.593 528.834C347.433 531.062 353.349 532.214 360.264 532.214C366.795 532.214 372.403 531.139 377.244 528.988C382.084 526.836 385.849 523.84 388.538 519.998C391.227 516.157 392.61 511.7 392.61 506.706C392.61 502.096 391.458 498.178 389.153 494.951C387.001 491.647 383.698 489.112 379.549 487.114Z" fill="white"/>
<path d="M481.736 474.36C477.74 472.823 473.054 472.362 466.984 472.362C465.063 472.362 450.619 472.362 450.619 472.362V482.735C450.619 482.735 467.983 482.735 470.057 482.735C473.822 482.735 477.126 484.194 479.047 486.115C480.737 487.806 481.044 491.417 481.121 494.797H467.522C462.297 494.797 457.764 495.489 453.999 496.872C450.235 498.255 447.315 500.406 445.317 503.172C443.32 506.015 442.244 508.089 442.244 512.315C442.244 516.387 443.166 519.844 444.933 522.764C446.7 525.684 449.236 527.912 452.463 529.448C455.69 530.985 459.531 531.753 463.911 531.753C468.136 531.753 471.671 530.985 474.59 529.448C477.51 527.912 479.815 525.761 481.428 522.918C482.197 521.688 482.735 520.229 483.272 518.692V530.14H493.568V496.103C493.568 490.495 492.569 485.04 490.648 481.659C488.727 478.355 485.731 475.897 481.736 474.36ZM473.745 520.69C471.671 521.535 469.519 521.996 467.215 521.996C463.296 521.996 460.3 521.074 458.225 519.307C456.151 517.463 455.152 515.081 455.152 512.084C455.152 509.088 456.151 508.089 458.225 506.168C460.3 504.248 463.296 503.326 467.215 503.326H481.198V508.089C481.044 511.7 480.276 514.543 478.893 516.541C477.51 518.385 475.82 519.844 473.745 520.69Z" fill="white"/>
<path d="M145.442 487.114C141.293 485.193 136.376 483.964 130.691 483.503L122.7 482.811C118.397 482.427 115.247 481.198 113.173 479.124C111.098 477.049 110.1 474.59 110.1 471.901C110.1 469.596 110.714 467.445 111.867 465.447C113.019 463.45 114.786 461.836 117.091 460.607C119.396 459.378 122.316 458.686 125.927 458.686C129.615 458.686 132.611 459.378 134.993 460.684C137.375 461.99 139.142 463.757 140.218 465.832C141.37 467.906 141.908 469.904 141.908 472.286H154.969C154.969 467.061 153.74 462.758 151.358 458.994C148.977 455.229 145.596 452.232 141.216 450.158C136.837 448.083 131.689 447.008 125.85 447.008C120.088 447.008 115.017 448.083 110.637 450.158C106.258 452.232 102.877 455.152 100.496 458.84C98.1138 462.528 96.8845 466.907 96.8845 471.901C96.8845 478.509 99.1126 483.81 103.569 487.806C108.025 491.801 113.941 494.106 121.394 494.72L129.461 495.489C134.763 495.95 138.758 497.102 141.447 499.1C144.136 501.021 145.442 503.556 145.442 506.706C145.442 509.242 144.751 511.47 143.368 513.544C141.985 515.619 139.91 517.309 137.068 518.538C134.225 519.768 130.614 520.459 126.234 520.459C121.471 520.459 117.629 519.768 114.786 518.308C111.944 516.848 109.946 515.004 108.717 512.853C107.487 510.625 106.796 505.631 106.796 503.326H93.7344C93.7344 508.32 94.9637 515.542 97.4991 519.537C100.035 523.456 103.646 526.606 108.486 528.834C113.327 531.062 119.243 532.214 126.157 532.214C132.688 532.214 138.297 531.139 143.137 528.988C147.978 526.836 151.742 523.84 154.432 519.998C157.121 516.157 158.504 511.7 158.504 506.706C158.504 502.096 157.351 498.178 155.046 494.951C152.818 491.647 149.591 489.112 145.442 487.114Z" fill="white"/>
<path d="M204.218 474.36C200.223 472.823 196.304 472.362 190.235 472.362C188.314 472.362 173.101 472.362 173.101 472.362V482.735C173.101 482.735 190.465 482.735 192.54 482.735C196.304 482.735 199.608 484.194 201.529 486.115C203.219 487.806 203.527 491.417 203.604 494.797H190.004C184.78 494.797 180.247 495.489 176.482 496.872C172.717 498.255 169.797 500.406 167.8 503.172C165.802 506.015 164.727 508.089 164.727 512.315C164.727 516.387 165.649 519.844 167.416 522.764C169.183 525.684 171.718 527.912 174.945 529.448C178.172 530.985 182.014 531.753 186.393 531.753C190.619 531.753 194.153 530.985 197.073 529.448C199.992 527.912 202.297 525.761 203.911 522.918C204.679 521.688 205.217 520.229 205.755 518.692V530.14H216.05V496.103C216.05 490.495 215.051 485.04 213.131 481.659C211.133 478.355 208.213 475.897 204.218 474.36ZM196.228 520.69C194.153 521.535 192.002 521.996 189.697 521.996C185.779 521.996 182.782 521.074 180.708 519.307C178.633 517.463 177.634 515.081 177.634 512.084C177.634 509.088 178.633 508.089 180.708 506.168C182.782 504.248 185.779 503.326 189.697 503.326H203.68V508.089C203.527 511.7 202.758 514.543 201.375 516.541C199.992 518.385 198.302 519.844 196.228 520.69Z" fill="white"/>
<path d="M243.327 467.598C243.327 465.14 243.48 462.066 244.863 460.683C246.246 459.3 248.628 459.147 251.087 459.147H260.076V448.774H252.546C245.555 448.774 240.176 450.388 236.565 453.615C232.954 456.842 231.11 461.144 231.11 467.829V472.362H223.273V482.734H231.11V530.216H243.403V482.657H261.152V472.285H243.403V467.598H243.327Z" fill="white"/>
</svg>
